<?xml version="1.0" encoding="UTF-8" standalone="no"?>
<!-- Created with Inkscape (http://www.inkscape.org/) -->
<svg
   xmlns:dc="http://purl.org/dc/elements/1.1/"
   xmlns:cc="http://creativecommons.org/ns#"
   xmlns:rdf="http://www.w3.org/1999/02/22-rdf-syntax-ns#"
   xmlns:svg="http://www.w3.org/2000/svg"
   xmlns="http://www.w3.org/2000/svg"
   xmlns:sodipodi="http://sodipodi.sourceforge.net/DTD/sodipodi-0.dtd"
   xmlns:inkscape="http://www.inkscape.org/namespaces/inkscape"
   width="337.09442"
   height="150.25743"
   id="svg2"
   sodipodi:version="0.32"
   inkscape:version="0.46"
   version="1.0"
   sodipodi:docbase="D:\Documents and Settings\shyamal\Desktop"
   sodipodi:docname="BirdMorpho.svg"
   inkscape:output_extension="org.inkscape.output.svg.inkscape">
  <defs
     id="defs4">
    <inkscape:perspective
       sodipodi:type="inkscape:persp3d"
       inkscape:vp_x="0 : 75.128716 : 1"
       inkscape:vp_y="0 : 1000 : 0"
       inkscape:vp_z="337.09442 : 75.128716 : 1"
       inkscape:persp3d-origin="168.54721 : 50.08581 : 1"
       id="perspective44" />
  </defs>
  <sodipodi:namedview
     id="base"
     pagecolor="#ffffff"
     bordercolor="#666666"
     borderopacity="1.0"
     gridtolerance="10000"
     guidetolerance="10"
     objecttolerance="10"
     inkscape:pageopacity="0.0"
     inkscape:pageshadow="2"
     inkscape:zoom="3.0095135"
     inkscape:cx="182.25639"
     inkscape:cy="67.518238"
     inkscape:document-units="px"
     inkscape:current-layer="layer1"
     inkscape:window-width="1280"
     inkscape:window-height="744"
     inkscape:window-x="70"
     inkscape:window-y="0"
     showgrid="false" />
  <metadata
     id="metadata7">
    <rdf:RDF>
      <cc:Work
         rdf:about="">
        <dc:format>image/svg+xml</dc:format>
        <dc:type
           rdf:resource="http://purl.org/dc/dcmitype/StillImage" />
      </cc:Work>
    </rdf:RDF>
  </metadata>
  <g
     inkscape:label="Layer 1"
     inkscape:groupmode="layer"
     id="layer1"
     transform="translate(-64.30093,-515.5629)">
    <g
       id="g3657"
       transform="matrix(0.934123,5.58112e-2,5.724509e-2,-0.910725,-10.86574,1077.396)">
      <path
         sodipodi:nodetypes="cscsssscssccccssszccc"
         id="path1872"
         d="M 81.740786,543.97437 C 81.740786,543.97437 87.05726,539.98701 93.038293,537.32877 C 99.019326,534.67053 105.66492,533.34142 105.66492,533.34142 C 105.66492,533.34142 106.8279,530.18476 110.98139,526.03127 C 115.13489,521.87777 116.13173,519.8841 122.2789,516.72744 C 128.42607,513.57078 128.92449,513.73692 135.57008,513.40464 C 142.21567,513.07236 140.72042,513.40464 148.86127,515.39832 C 157.00212,517.392 168.13349,521.37935 168.13349,521.37935 C 168.13349,521.37935 169.79488,520.71479 189.39938,521.37935 C 209.00388,522.04391 227.5045,523.06785 246.55148,524.03759 C 277.79724,525.62841 291.74572,527.07588 314.33652,528.6895 L 388.76715,530.01862 L 392.08995,540.65157 L 328.29226,541.98069 C 307.18254,554.31836 289.3098,570.89952 267.81737,582.5188 C 249.20971,591.32421 244.56484,591.38844 224.62102,591.82263 C 193.68524,592.49613 178.2807,587.27599 159.49422,575.87321 C 146.45494,567.95879 146.80389,564.95686 137.56376,556.93327 C 128.32363,548.90969 116.92555,546.83204 107.6586,539.98701 L 89.715497,541.98069 L 81.740786,543.97437 z"
         style="fill:none;fill-rule:evenodd;stroke:#000000;stroke-width:1.08215761px;stroke-linecap:butt;stroke-linejoin:miter;stroke-opacity:1" />
      <path
         sodipodi:nodetypes="cscsscssc"
         id="path1874"
         d="M 170.12716,546.6326 C 170.12716,546.6326 175.44363,548.294 178.76643,551.94908 C 183.94514,557.0523 174.02899,561.59397 184.0829,569.22762 C 196.1926,574.41017 196.5434,577.03619 219.96911,577.20233 C 243.39483,577.36847 250.87112,575.37479 281.10856,568.56306 C 310.97889,561.83403 335.60242,555.93643 335.60242,555.93643 C 320.98555,547.43931 305.06829,548.06007 291.07694,545.96805 C 265.90054,542.20361 275.12752,536.83036 257.18443,533.34142 C 239.24133,529.85248 219.30455,532.0123 219.30455,532.0123"
         style="fill:none;fill-rule:evenodd;stroke:#000000;stroke-width:1.08215761000000010px;stroke-linecap:butt;stroke-linejoin:miter;stroke-opacity:1" />
      <path
         sodipodi:nodetypes="cccsscsssscscsccc"
         id="path1876"
         d="M 285.09591,571.88585 L 298.05482,573.87953 L 271.80473,607.10749 C 271.80473,607.10749 265.49142,608.1874 259.84266,611.75941 C 254.1939,615.33142 255.85531,614.08536 253.86163,617.40816 C 251.86795,620.73096 255.85531,624.38603 255.85531,624.38603 C 255.85531,624.38603 254.1939,620.39868 257.18442,617.74044 C 260.17494,615.08221 261.6702,613.58695 265.49142,612.42397 C 269.31264,611.26099 269.47877,612.59011 272.46929,613.08853 C 275.45981,613.58695 274.96138,614.08536 275.79208,616.41132 C 276.62278,618.73728 275.79208,622.39236 275.79208,622.39236 C 275.79208,622.39236 279.6133,621.7278 279.77944,618.405 C 279.94558,615.0822 276.45664,609.10117 276.45664,609.10117 C 276.45664,609.10117 294.39974,585.26011 301.70989,576.53777 C 309.116,567.70093 299.05165,568.89533 299.05165,568.89533 L 291.40923,567.8985 L 285.09591,571.88585 z"
         style="fill:none;fill-rule:evenodd;stroke:#000000;stroke-width:1.08215761px;stroke-linecap:butt;stroke-linejoin:miter;stroke-opacity:1" />
      <path
         transform="translate(-0.996839,0)"
         d="M 130.25362,529.5202 A 3.8212156,3.1566563 0 1 1 122.61119,529.5202 A 3.8212156,3.1566563 0 1 1 130.25362,529.5202 z"
         sodipodi:ry="3.1566563"
         sodipodi:rx="3.8212156"
         sodipodi:cy="529.5202"
         sodipodi:cx="126.4324"
         id="path1880"
         style="opacity:0.96999996;fill:#ffffff;fill-opacity:1;fill-rule:evenodd;stroke:#1a1111;stroke-width:1.4068048;stroke-linecap:round;stroke-linejoin:round;stroke-miterlimit:4;stroke-dasharray:none;stroke-dashoffset:0;stroke-opacity:1"
         sodipodi:type="arc" />
      <path
         sodipodi:nodetypes="cc"
         id="path3653"
         d="M 309.6846,541.64841 L 392.42223,540.65157"
         style="fill:none;fill-rule:evenodd;stroke:#000000;stroke-width:1.08215761px;stroke-linecap:butt;stroke-linejoin:miter;stroke-opacity:1" />
    </g>
    <path
       style="fill:#ff0000;fill-rule:evenodd;stroke:#e22e2e;stroke-width:0.99999982px;stroke-linecap:butt;stroke-linejoin:miter;stroke-opacity:1"
       d="M 285.29743,536.84753 L 305.51062,522.59793"
       id="path3664" />
    <path
       style="fill:#ff0000;fill-rule:evenodd;stroke:#e22e2e;stroke-width:0.99999982px;stroke-linecap:butt;stroke-linejoin:miter;stroke-opacity:1"
       d="M 309.70875,571.56197 L 329.92193,557.31238"
       id="path4551" />
    <path
       style="fill:#ff0000;fill-rule:evenodd;stroke:#e22e2e;stroke-width:0.99999982px;stroke-linecap:butt;stroke-linejoin:miter;stroke-opacity:1"
       d="M 305.66611,626.13489 L 305.97708,608.55028"
       id="path4555"
       sodipodi:nodetypes="cc" />
    <path
       style="fill:#ff0000;fill-rule:evenodd;stroke:#e22e2e;stroke-width:0.99999982px;stroke-linecap:butt;stroke-linejoin:miter;stroke-opacity:1"
       d="M 385.58596,625.9833 L 385.89693,608.39869"
       id="path4557"
       sodipodi:nodetypes="cc" />
    <path
       style="fill:#ff0000;fill-rule:evenodd;stroke:#e22e2e;stroke-width:0.99999982px;stroke-linecap:butt;stroke-linejoin:miter;stroke-opacity:1"
       d="M 94.515989,649.93475 L 94.826952,632.35014"
       id="path4559"
       sodipodi:nodetypes="cc" />
    <path
       style="fill:#ff0000;fill-rule:evenodd;stroke:#e22e2e;stroke-width:0.99999982px;stroke-linecap:butt;stroke-linejoin:miter;stroke-opacity:1"
       d="M 386.51888,651.45065 L 386.82985,633.86604"
       id="path4561"
       sodipodi:nodetypes="cc" />
    <path
       style="fill:none;fill-rule:evenodd;stroke:#eb161c;stroke-width:0.99999982px;stroke-linecap:butt;stroke-linejoin:miter;stroke-opacity:0.79605264"
       d="M 94.479707,643.10702 C 381.50703,644.31976 386.13764,643.32292 386.13764,643.32292"
       id="path4563"
       sodipodi:nodetypes="cc" />
    <path
       style="fill:none;fill-rule:evenodd;stroke:#eb161c;stroke-width:0.99999982px;stroke-linecap:butt;stroke-linejoin:miter;stroke-opacity:0.79605264"
       d="M 306.13256,616.58463 C 342.51631,617.19099 385.11951,617.79736 385.11951,617.79736"
       id="path5452"
       sodipodi:nodetypes="cc" />
    <path
       style="fill:none;fill-rule:evenodd;stroke:#eb161c;stroke-width:0.99999982px;stroke-linecap:butt;stroke-linejoin:miter;stroke-opacity:0.79605264"
       d="M 295.24853,530.70807 C 306.75451,547.68631 318.88243,562.84545 318.88243,562.84545"
       id="path5454"
       sodipodi:nodetypes="cc" />
    <path
       style="fill:#ff5555;fill-rule:evenodd;stroke:#e50d0f;stroke-width:0.99999982px;stroke-linecap:butt;stroke-linejoin:miter;stroke-opacity:1"
       d="M 96.537307,587.17589 L 92.183697,595.36183"
       id="path5456" />
    <path
       style="fill:#ff5555;fill-rule:evenodd;stroke:#e50d0f;stroke-width:0.99999982px;stroke-linecap:butt;stroke-linejoin:miter;stroke-opacity:1"
       d="M 159.66466,616.43303 L 147.53674,638.86857"
       id="path6343"
       sodipodi:nodetypes="cc" />
    <path
       style="fill:#ff5555;fill-rule:evenodd;stroke:#e50d0f;stroke-width:0.99999982px;stroke-linecap:butt;stroke-linejoin:miter;stroke-opacity:1"
       d="M 118.30536,597.93887 L 113.95175,606.12481"
       id="path6345" />
    <path
       style="fill:#ff5555;fill-rule:evenodd;stroke:#e50d0f;stroke-width:0.99999982px;stroke-linecap:butt;stroke-linejoin:miter;stroke-opacity:1"
       d="M 116.12855,601.27389 L 95.604391,590.05613"
       id="path6347"
       sodipodi:nodetypes="cc" />
    <path
       style="fill:#ff5555;fill-rule:evenodd;stroke:#e50d0f;stroke-width:0.99999982px;stroke-linecap:butt;stroke-linejoin:miter;stroke-opacity:1"
       d="M 149.71354,633.71446 L 88.763005,602.48662"
       id="path6349"
       sodipodi:nodetypes="cc" />
    <path
       style="fill:#ff5555;fill-rule:evenodd;stroke:#e50d0f;stroke-width:0.99999982px;stroke-linecap:butt;stroke-linejoin:miter;stroke-opacity:1"
       d="M 91.561752,597.02933 L 85.342308,609.15665"
       id="path6351"
       sodipodi:nodetypes="cc" />
    <text
       xml:space="preserve"
       style="font-size:20.32974243px;font-style:normal;font-variant:normal;font-weight:normal;font-stretch:normal;text-align:start;line-height:125%;writing-mode:lr-tb;text-anchor:start;fill:#000000;fill-opacity:1;stroke:none;stroke-width:1px;stroke-linecap:butt;stroke-linejoin:miter;stroke-opacity:1;font-family:Arial"
       x="225.20386"
       y="607.25977"
       id="text6353"
       sodipodi:linespacing="125%"
       transform="scale(1.0127644,0.9873964)"><tspan
         sodipodi:role="line"
         id="tspan6383"
         x="225.20386"
         y="607.25977">W</tspan></text>
    <text
       xml:space="preserve"
       style="font-size:20.32974243px;font-style:normal;font-variant:normal;font-weight:normal;font-stretch:normal;text-align:start;line-height:125%;writing-mode:lr-tb;text-anchor:start;fill:#000000;fill-opacity:1;stroke:none;stroke-width:1px;stroke-linecap:butt;stroke-linejoin:miter;stroke-opacity:1;font-family:Arial"
       x="233.39146"
       y="667.65607"
       id="text6357"
       sodipodi:linespacing="125%"
       transform="scale(1.0127644,0.9873964)"><tspan
         sodipodi:role="line"
         id="tspan6385"
         x="233.39146"
         y="667.65607">L</tspan></text>
    <text
       xml:space="preserve"
       style="font-size:20.32974243px;font-style:normal;font-variant:normal;font-weight:normal;font-stretch:normal;text-align:start;line-height:125%;writing-mode:lr-tb;text-anchor:start;fill:#000000;fill-opacity:1;stroke:none;stroke-width:1px;stroke-linecap:butt;stroke-linejoin:miter;stroke-opacity:1;font-family:Arial"
       x="348.53625"
       y="607.78082"
       id="text6361"
       sodipodi:linespacing="125%"
       transform="scale(1.0127644,0.9873964)"><tspan
         sodipodi:role="line"
         id="tspan6396"
         x="348.53625"
         y="607.78082">Tail</tspan></text>
    <text
       xml:space="preserve"
       style="font-size:20.32974243px;font-style:normal;font-variant:normal;font-weight:normal;font-stretch:normal;text-align:start;line-height:125%;writing-mode:lr-tb;text-anchor:start;fill:#000000;fill-opacity:1;stroke:none;stroke-width:1px;stroke-linecap:butt;stroke-linejoin:miter;stroke-opacity:1;font-family:Arial"
       x="73.109955"
       y="634.49432"
       id="text6365"
       sodipodi:linespacing="125%"
       transform="scale(1.0127644,0.9873964)"><tspan
         sodipodi:role="line"
         id="tspan6392"
         x="73.109955"
         y="634.49432">B2</tspan></text>
    <text
       xml:space="preserve"
       style="font-size:20.32974243px;font-style:normal;font-variant:normal;font-weight:normal;font-stretch:normal;text-align:start;line-height:125%;writing-mode:lr-tb;text-anchor:start;fill:#000000;fill-opacity:1;stroke:none;stroke-width:1px;stroke-linecap:butt;stroke-linejoin:miter;stroke-opacity:1;font-family:Arial"
       x="69.425331"
       y="593.34937"
       id="text6369"
       sodipodi:linespacing="125%"
       transform="scale(1.0127644,0.9873964)"><tspan
         sodipodi:role="line"
         id="tspan6390"
         x="69.425331"
         y="593.34937">B1</tspan></text>
    <text
       xml:space="preserve"
       style="font-size:20.32974243px;font-style:normal;font-variant:normal;font-weight:normal;font-stretch:normal;text-align:start;line-height:125%;writing-mode:lr-tb;text-anchor:start;fill:#000000;fill-opacity:1;stroke:none;stroke-width:1px;stroke-linecap:butt;stroke-linejoin:miter;stroke-opacity:1;font-family:Arial"
       x="309.54059"
       y="551.28308"
       id="text6373"
       sodipodi:linespacing="125%"
       transform="scale(1.0127644,0.9873964)"><tspan
         sodipodi:role="line"
         id="tspan6394"
         x="309.54059"
         y="551.28308">Tar</tspan></text>
    <path
       style="fill:none;fill-rule:evenodd;stroke:#eb161c;stroke-width:0.99999982px;stroke-linecap:butt;stroke-linejoin:miter;stroke-opacity:0.79605264"
       d="M 188.89604,575.95812 C 225.90174,579.59632 335.36395,593.54273 335.36395,593.54273"
       id="path6377"
       sodipodi:nodetypes="cc" />
    <path
       style="fill:#ff5555;fill-rule:evenodd;stroke:#e50d0f;stroke-width:0.99999982px;stroke-linecap:butt;stroke-linejoin:miter;stroke-opacity:1"
       d="M 185.63085,591.42044 L 189.36251,567.16582"
       id="path6379"
       sodipodi:nodetypes="cc" />
    <path
       style="fill:#ff5555;fill-rule:evenodd;stroke:#e50d0f;stroke-width:0.99999982px;stroke-linecap:butt;stroke-linejoin:miter;stroke-opacity:1"
       d="M 332.5652,609.30824 L 336.29686,585.05361"
       id="path6381"
       sodipodi:nodetypes="cc" />
  </g>
</svg>
